{
    "asset" : {
        "generator" : "Khronos glTF Blender I/O v3.4.50",
        "version" : "2.0"
    },
    "scene" : 0,
    "scenes" : [
        {
            "name" : "Scene",
            "nodes" : [
                0,
                1,
                2
            ]
        }
    ],
    "nodes" : [
        {
            "mesh" : 0,
            "name" : "Cylinder",
            "translation" : [
                -5.851064205169678,
                3.8002562522888184,
                0
            ]
        },
        {
            "mesh" : 1,
            "name" : "imagetostl_mesh",
            "rotation" : [
                0.709924578666687,
                0,
                0,
                0.704277753829956
            ],
            "scale" : [
                0.09960586577653885,
                0.09960586577653885,
                0.09960586577653885
            ],
            "translation" : [
                5.662199974060059,
                0,
                0
            ]
        },
        {
            "mesh" : 2,
            "name" : "imagetostl_mesh.001",
            "scale" : [
                0.1636214256286621,
                0.1636214256286621,
                0.1636214256286621
            ],
            "translation" : [
                0.3718879222869873,
                1.5781546831130981,
                1.650547742843628
            ]
        }
    ],
    "materials" : [
        {
            "doubleSided" : true,
            "name" : "Material",
            "pbrMetallicRoughness" : {
                "baseColorFactor" : [
                    1,
                    0.5028860569000244,
                    0.01444400567561388,
                    1
                ],
                "metallicFactor" : 0,
                "roughnessFactor" : 0.5
            }
        },
        {
            "doubleSided" : true,
            "name" : "Material.001",
            "pbrMetallicRoughness" : {
                "baseColorFactor" : [
                    1,
                    0.5028860569000244,
                    0.01444400567561388,
                    1
                ],
                "metallicFactor" : 0,
                "roughnessFactor" : 0.5
            }
        },
        {
            "doubleSided" : true,
            "name" : "Material.002",
            "pbrMetallicRoughness" : {
                "baseColorFactor" : [
                    1,
                    0.5028860569000244,
                    0.01444400567561388,
                    1
                ],
                "metallicFactor" : 0,
                "roughnessFactor" : 0.5
            }
        },
        {
            "doubleSided" : true,
            "name" : "Material.003",
            "pbrMetallicRoughness" : {
                "baseColorFactor" : [
                    1,
                    0.5028860569000244,
                    0.01444400567561388,
                    1
                ],
                "metallicFactor" : 0,
                "roughnessFactor" : 0.5
            }
        },
        {
            "doubleSided" : true,
            "name" : "Material.004",
            "pbrMetallicRoughness" : {
                "baseColorFactor" : [
                    1,
                    0.5028860569000244,
                    0.01444400567561388,
                    1
                ],
                "metallicFactor" : 0,
                "roughnessFactor" : 0.5
            }
        },
        {
            "doubleSided" : true,
            "name" : "Material.005",
            "pbrMetallicRoughness" : {
                "baseColorFactor" : [
                    1,
                    0.5028860569000244,
                    0.01444400567561388,
                    1
                ],
                "metallicFactor" : 0,
                "roughnessFactor" : 0.5
            }
        },
        {
            "doubleSided" : true,
            "name" : "Material.006",
            "pbrMetallicRoughness" : {
                "baseColorFactor" : [
                    1,
                    0.5028860569000244,
                    0.01444400567561388,
                    1
                ],
                "metallicFactor" : 0,
                "roughnessFactor" : 0.5
            }
        },
        {
            "doubleSided" : true,
            "name" : "mat0",
            "pbrMetallicRoughness" : {
                "baseColorFactor" : [
                    0.026489131152629852,
                    0.19371184706687927,
                    0.8627450466156006,
                    1
                ],
                "metallicFactor" : 0,
                "roughnessFactor" : 0.4000000059604645
            }
        },
        {
            "doubleSided" : true,
            "name" : "mat0.001",
            "pbrMetallicRoughness" : {
                "baseColorFactor" : [
                    0.8627450466156006,
                    0.009885884821414948,
                    0.016321491450071335,
                    1
                ],
                "metallicFactor" : 0,
                "roughnessFactor" : 0.4000000059604645
            }
        }
    ],
    "meshes" : [
        {
            "name" : "Cylinder",
            "primitives" : [
                {
                    "attributes" : {
                        "POSITION" : 0,
                        "TEXCOORD_0" : 1,
                        "NORMAL" : 2
                    },
                    "indices" : 3,
                    "material" : 0
                },
                {
                    "attributes" : {
                        "POSITION" : 4,
                        "TEXCOORD_0" : 5,
                        "NORMAL" : 6
                    },
                    "indices" : 7,
                    "material" : 1
                },
                {
                    "attributes" : {
                        "POSITION" : 8,
                        "TEXCOORD_0" : 9,
                        "NORMAL" : 10
                    },
                    "indices" : 11,
                    "material" : 2
                },
                {
                    "attributes" : {
                        "POSITION" : 12,
                        "TEXCOORD_0" : 13,
                        "NORMAL" : 14
                    },
                    "indices" : 15,
                    "material" : 3
                },
                {
                    "attributes" : {
                        "POSITION" : 16,
                        "TEXCOORD_0" : 17,
                        "NORMAL" : 18
                    },
                    "indices" : 19,
                    "material" : 4
                },
                {
                    "attributes" : {
                        "POSITION" : 20,
                        "TEXCOORD_0" : 21,
                        "NORMAL" : 22
                    },
                    "indices" : 23,
                    "material" : 5
                },
                {
                    "attributes" : {
                        "POSITION" : 24,
                        "TEXCOORD_0" : 25,
                        "NORMAL" : 26
                    },
                    "indices" : 27,
                    "material" : 6
                }
            ]
        },
        {
            "name" : "imagetostl_mesh",
            "primitives" : [
                {
                    "attributes" : {
                        "POSITION" : 28,
                        "NORMAL" : 29
                    },
                    "indices" : 30,
                    "material" : 7
                }
            ]
        },
        {
            "name" : "imagetostl_mesh.001",
            "primitives" : [
                {
                    "attributes" : {
                        "POSITION" : 31,
                        "NORMAL" : 32
                    },
                    "indices" : 33,
                    "material" : 8
                }
            ]
        }
    ],
    "accessors" : [
        {
            "bufferView" : 0,
            "componentType" : 5126,
            "count" : 3634,
            "max" : [
                3.7875170707702637,
                3.096662998199463,
                2.3837454319000244
            ],
            "min" : [
                -2.0248911380767822,
                -3.4983129501342773,
                -3.385186195373535
            ],
            "type" : "VEC3"
        },
        {
            "bufferView" : 1,
            "componentType" : 5126,
            "count" : 3634,
            "type" : "VEC2"
        },
        {
            "bufferView" : 2,
            "componentType" : 5126,
            "count" : 3634,
            "type" : "VEC3"
        },
        {
            "bufferView" : 3,
            "componentType" : 5123,
            "count" : 20604,
            "type" : "SCALAR"
        },
        {
            "bufferView" : 4,
            "componentType" : 5126,
            "count" : 290,
            "max" : [
                2.1885933876037598,
                3.5457839965820312,
                0.6222150921821594
            ],
            "min" : [
                -2.1885933876037598,
                2.716094493865967,
                -0.028850466012954712
            ],
            "type" : "VEC3"
        },
        {
            "bufferView" : 5,
            "componentType" : 5126,
            "count" : 290,
            "type" : "VEC2"
        },
        {
            "bufferView" : 6,
            "componentType" : 5126,
            "count" : 290,
            "type" : "VEC3"
        },
        {
            "bufferView" : 7,
            "componentType" : 5123,
            "count" : 1536,
            "type" : "SCALAR"
        },
        {
            "bufferView" : 8,
            "componentType" : 5126,
            "count" : 18,
            "max" : [
                1.3805291652679443,
                -1.9022061824798584,
                -0.8471345901489258
            ],
            "min" : [
                -0.24405130743980408,
                -2.892752170562744,
                -2.394404649734497
            ],
            "type" : "VEC3"
        },
        {
            "bufferView" : 9,
            "componentType" : 5126,
            "count" : 18,
            "type" : "VEC2"
        },
        {
            "bufferView" : 10,
            "componentType" : 5126,
            "count" : 18,
            "type" : "VEC3"
        },
        {
            "bufferView" : 11,
            "componentType" : 5123,
            "count" : 84,
            "type" : "SCALAR"
        },
        {
            "bufferView" : 12,
            "componentType" : 5126,
            "count" : 44,
            "max" : [
                1.4273576736450195,
                0.5444095730781555,
                1.8120436668395996
            ],
            "min" : [
                -1.4273576736450195,
                -0.17694157361984253,
                0.9680705666542053
            ],
            "type" : "VEC3"
        },
        {
            "bufferView" : 13,
            "componentType" : 5126,
            "count" : 44,
            "type" : "VEC2"
        },
        {
            "bufferView" : 14,
            "componentType" : 5126,
            "count" : 44,
            "type" : "VEC3"
        },
        {
            "bufferView" : 15,
            "componentType" : 5123,
            "count" : 144,
            "type" : "SCALAR"
        },
        {
            "bufferView" : 16,
            "componentType" : 5126,
            "count" : 122,
            "max" : [
                1.4846217632293701,
                -0.17692485451698303,
                -0.1758374124765396
            ],
            "min" : [
                -1.4846217632293701,
                -1.6115660667419434,
                -1.406708836555481
            ],
            "type" : "VEC3"
        },
        {
            "bufferView" : 17,
            "componentType" : 5126,
            "count" : 122,
            "type" : "VEC2"
        },
        {
            "bufferView" : 18,
            "componentType" : 5126,
            "count" : 122,
            "type" : "VEC3"
        },
        {
            "bufferView" : 19,
            "componentType" : 5123,
            "count" : 480,
            "type" : "SCALAR"
        },
        {
            "bufferView" : 20,
            "componentType" : 5126,
            "count" : 27,
            "max" : [
                0.4439576268196106,
                0.65074223279953,
                2.3837454319000244
            ],
            "min" : [
                -0.4439576268196106,
                0.012096432968974113,
                2.0562448501586914
            ],
            "type" : "VEC3"
        },
        {
            "bufferView" : 21,
            "componentType" : 5126,
            "count" : 27,
            "type" : "VEC2"
        },
        {
            "bufferView" : 22,
            "componentType" : 5126,
            "count" : 27,
            "type" : "VEC3"
        },
        {
            "bufferView" : 23,
            "componentType" : 5123,
            "count" : 72,
            "type" : "SCALAR"
        },
        {
            "bufferView" : 24,
            "componentType" : 5126,
            "count" : 36,
            "max" : [
                0.9056512117385864,
                1.0768914222717285,
                2.1958062648773193
            ],
            "min" : [
                -0.9056512117385864,
                0.5444095730781555,
                1.6736869812011719
            ],
            "type" : "VEC3"
        },
        {
            "bufferView" : 25,
            "componentType" : 5126,
            "count" : 36,
            "type" : "VEC2"
        },
        {
            "bufferView" : 26,
            "componentType" : 5126,
            "count" : 36,
            "type" : "VEC3"
        },
        {
            "bufferView" : 27,
            "componentType" : 5123,
            "count" : 96,
            "type" : "SCALAR"
        },
        {
            "bufferView" : 28,
            "componentType" : 5126,
            "count" : 8544,
            "max" : [
                17.87220573425293,
                53.732147216796875,
                1.2999999853491317e-05
            ],
            "min" : [
                -17.872211456298828,
                -91.98870849609375,
                -65.49311828613281
            ],
            "type" : "VEC3"
        },
        {
            "bufferView" : 29,
            "componentType" : 5126,
            "count" : 8544,
            "type" : "VEC3"
        },
        {
            "bufferView" : 30,
            "componentType" : 5123,
            "count" : 8544,
            "type" : "SCALAR"
        },
        {
            "bufferView" : 31,
            "componentType" : 5126,
            "count" : 33792,
            "max" : [
                10.625,
                19.961200714111328,
                4.570099830627441
            ],
            "min" : [
                -10.625,
                0.046300001442432404,
                -4.571199893951416
            ],
            "type" : "VEC3"
        },
        {
            "bufferView" : 32,
            "componentType" : 5126,
            "count" : 33792,
            "type" : "VEC3"
        },
        {
            "bufferView" : 33,
            "componentType" : 5123,
            "count" : 33792,
            "type" : "SCALAR"
        }
    ],
    "bufferViews" : [
        {
            "buffer" : 0,
            "byteLength" : 43608,
            "byteOffset" : 0,
            "target" : 34962
        },
        {
            "buffer" : 0,
            "byteLength" : 29072,
            "byteOffset" : 43608,
            "target" : 34962
        },
        {
            "buffer" : 0,
            "byteLength" : 43608,
            "byteOffset" : 72680,
            "target" : 34962
        },
        {
            "buffer" : 0,
            "byteLength" : 41208,
            "byteOffset" : 116288,
            "target" : 34963
        },
        {
            "buffer" : 0,
            "byteLength" : 3480,
            "byteOffset" : 157496,
            "target" : 34962
        },
        {
            "buffer" : 0,
            "byteLength" : 2320,
            "byteOffset" : 160976,
            "target" : 34962
        },
        {
            "buffer" : 0,
            "byteLength" : 3480,
            "byteOffset" : 163296,
            "target" : 34962
        },
        {
            "buffer" : 0,
            "byteLength" : 3072,
            "byteOffset" : 166776,
            "target" : 34963
        },
        {
            "buffer" : 0,
            "byteLength" : 216,
            "byteOffset" : 169848,
            "target" : 34962
        },
        {
            "buffer" : 0,
            "byteLength" : 144,
            "byteOffset" : 170064,
            "target" : 34962
        },
        {
            "buffer" : 0,
            "byteLength" : 216,
            "byteOffset" : 170208,
            "target" : 34962
        },
        {
            "buffer" : 0,
            "byteLength" : 168,
            "byteOffset" : 170424,
            "target" : 34963
        },
        {
            "buffer" : 0,
            "byteLength" : 528,
            "byteOffset" : 170592,
            "target" : 34962
        },
        {
            "buffer" : 0,
            "byteLength" : 352,
            "byteOffset" : 171120,
            "target" : 34962
        },
        {
            "buffer" : 0,
            "byteLength" : 528,
            "byteOffset" : 171472,
            "target" : 34962
        },
        {
            "buffer" : 0,
            "byteLength" : 288,
            "byteOffset" : 172000,
            "target" : 34963
        },
        {
            "buffer" : 0,
            "byteLength" : 1464,
            "byteOffset" : 172288,
            "target" : 34962
        },
        {
            "buffer" : 0,
            "byteLength" : 976,
            "byteOffset" : 173752,
            "target" : 34962
        },
        {
            "buffer" : 0,
            "byteLength" : 1464,
            "byteOffset" : 174728,
            "target" : 34962
        },
        {
            "buffer" : 0,
            "byteLength" : 960,
            "byteOffset" : 176192,
            "target" : 34963
        },
        {
            "buffer" : 0,
            "byteLength" : 324,
            "byteOffset" : 177152,
            "target" : 34962
        },
        {
            "buffer" : 0,
            "byteLength" : 216,
            "byteOffset" : 177476,
            "target" : 34962
        },
        {
            "buffer" : 0,
            "byteLength" : 324,
            "byteOffset" : 177692,
            "target" : 34962
        },
        {
            "buffer" : 0,
            "byteLength" : 144,
            "byteOffset" : 178016,
            "target" : 34963
        },
        {
            "buffer" : 0,
            "byteLength" : 432,
            "byteOffset" : 178160,
            "target" : 34962
        },
        {
            "buffer" : 0,
            "byteLength" : 288,
            "byteOffset" : 178592,
            "target" : 34962
        },
        {
            "buffer" : 0,
            "byteLength" : 432,
            "byteOffset" : 178880,
            "target" : 34962
        },
        {
            "buffer" : 0,
            "byteLength" : 192,
            "byteOffset" : 179312,
            "target" : 34963
        },
        {
            "buffer" : 0,
            "byteLength" : 102528,
            "byteOffset" : 179504,
            "target" : 34962
        },
        {
            "buffer" : 0,
            "byteLength" : 102528,
            "byteOffset" : 282032,
            "target" : 34962
        },
        {
            "buffer" : 0,
            "byteLength" : 17088,
            "byteOffset" : 384560,
            "target" : 34963
        },
        {
            "buffer" : 0,
            "byteLength" : 405504,
            "byteOffset" : 401648,
            "target" : 34962
        },
        {
            "buffer" : 0,
            "byteLength" : 405504,
            "byteOffset" : 807152,
            "target" : 34962
        },
        {
            "buffer" : 0,
            "byteLength" : 67584,
            "byteOffset" : 1212656,
            "target" : 34963
        }
    ],
    "buffers" : [
        {
            "byteLength" : 1280240,
            "uri" : "data:application/octet-stream;base64,"
        }
    ]
}
